<mxfile host="Electron" agent="Mozilla/5.0 (Windows NT 10.0; Win64; x64) AppleWebKit/537.36 (KHTML, like Gecko) draw.io/28.0.6 Chrome/138.0.7204.100 Electron/37.2.3 Safari/537.36" version="28.0.6">
  <diagram name="Página-1" id="mZ1MFNOK2w7aIHmf8w0I">
    <mxGraphModel dx="983" dy="580" grid="0" gridSize="10" guides="1" tooltips="1" connect="1" arrows="1" fold="1" page="1" pageScale="1" pageWidth="827" pageHeight="1169" math="0" shadow="0">
      <root>
        <mxCell id="0" />
        <mxCell id="1" parent="0" />
        <mxCell id="ntK_IDRZFJ25XYkXD009-15" value="Petición de verificación de elaboración de examen, entrega de tareas y otros casos" style="shape=table;startSize=28;container=1;collapsible=0;childLayout=tableLayout;fixedRows=1;rowLines=0;fontStyle=0;strokeColor=default;fontSize=15;fontFamily=Times New Roman;" vertex="1" parent="1">
          <mxGeometry x="27" y="27" width="498.6970443349751" height="94.86206896551734" as="geometry" />
        </mxCell>
        <mxCell id="ntK_IDRZFJ25XYkXD009-16" value="" style="shape=tableRow;horizontal=0;startSize=0;swimlaneHead=0;swimlaneBody=0;top=0;left=0;bottom=0;right=0;collapsible=0;dropTarget=0;fillColor=none;points=[[0,0.5],[1,0.5]];portConstraint=eastwest;strokeColor=inherit;fontSize=16;fontFamily=Times New Roman;" vertex="1" parent="ntK_IDRZFJ25XYkXD009-15">
          <mxGeometry y="28" width="498.6970443349751" height="20" as="geometry" />
        </mxCell>
        <mxCell id="ntK_IDRZFJ25XYkXD009-17" value="&lt;font style=&quot;font-size: 14px;&quot;&gt;Detalle&lt;/font&gt;&lt;div&gt;&lt;br&gt;&lt;/div&gt;" style="shape=partialRectangle;html=1;whiteSpace=wrap;connectable=0;fillColor=none;top=0;left=0;bottom=0;right=0;overflow=hidden;pointerEvents=1;strokeColor=inherit;fontSize=16;fontFamily=Times New Roman;" vertex="1" parent="ntK_IDRZFJ25XYkXD009-16">
          <mxGeometry width="76" height="20" as="geometry">
            <mxRectangle width="76" height="20" as="alternateBounds" />
          </mxGeometry>
        </mxCell>
        <mxCell id="ntK_IDRZFJ25XYkXD009-18" value="&lt;font style=&quot;font-size: 14px;&quot;&gt;Ciclo 01-2025&lt;/font&gt;" style="shape=partialRectangle;html=1;whiteSpace=wrap;connectable=0;fillColor=none;top=0;left=0;bottom=0;right=0;align=left;spacingLeft=6;overflow=hidden;strokeColor=inherit;fontSize=16;fontFamily=Times New Roman;" vertex="1" parent="ntK_IDRZFJ25XYkXD009-16">
          <mxGeometry x="76" width="423" height="20" as="geometry">
            <mxRectangle width="423" height="20" as="alternateBounds" />
          </mxGeometry>
        </mxCell>
        <mxCell id="ntK_IDRZFJ25XYkXD009-19" value="" style="shape=tableRow;horizontal=0;startSize=0;swimlaneHead=0;swimlaneBody=0;top=0;left=0;bottom=0;right=0;collapsible=0;dropTarget=0;fillColor=none;points=[[0,0.5],[1,0.5]];portConstraint=eastwest;strokeColor=inherit;fontSize=16;fontFamily=Times New Roman;" vertex="1" parent="ntK_IDRZFJ25XYkXD009-15">
          <mxGeometry y="48" width="498.6970443349751" height="25" as="geometry" />
        </mxCell>
        <mxCell id="ntK_IDRZFJ25XYkXD009-20" value="&lt;font style=&quot;font-size: 14px;&quot;&gt;Encargado&lt;/font&gt;" style="shape=partialRectangle;html=1;whiteSpace=wrap;connectable=0;fillColor=none;top=0;left=0;bottom=0;right=0;overflow=hidden;strokeColor=inherit;fontSize=16;fontFamily=Times New Roman;" vertex="1" parent="ntK_IDRZFJ25XYkXD009-19">
          <mxGeometry width="76" height="25" as="geometry">
            <mxRectangle width="76" height="25" as="alternateBounds" />
          </mxGeometry>
        </mxCell>
        <mxCell id="ntK_IDRZFJ25XYkXD009-21" value="&lt;span style=&quot;font-size: 14px;&quot;&gt;Juan José, Mauricio Chinchilla y René Cruz&lt;/span&gt;" style="shape=partialRectangle;html=1;whiteSpace=wrap;connectable=0;fillColor=none;top=0;left=0;bottom=0;right=0;align=left;spacingLeft=6;overflow=hidden;strokeColor=inherit;fontSize=16;fontFamily=Times New Roman;" vertex="1" parent="ntK_IDRZFJ25XYkXD009-19">
          <mxGeometry x="76" width="423" height="25" as="geometry">
            <mxRectangle width="423" height="25" as="alternateBounds" />
          </mxGeometry>
        </mxCell>
        <mxCell id="ntK_IDRZFJ25XYkXD009-22" value="" style="shape=tableRow;horizontal=0;startSize=0;swimlaneHead=0;swimlaneBody=0;top=0;left=0;bottom=0;right=0;collapsible=0;dropTarget=0;fillColor=none;points=[[0,0.5],[1,0.5]];portConstraint=eastwest;strokeColor=inherit;fontSize=16;fontFamily=Times New Roman;" vertex="1" parent="ntK_IDRZFJ25XYkXD009-15">
          <mxGeometry y="73" width="498.6970443349751" height="20" as="geometry" />
        </mxCell>
        <mxCell id="ntK_IDRZFJ25XYkXD009-23" value="" style="shape=partialRectangle;html=1;whiteSpace=wrap;connectable=0;fillColor=none;top=0;left=0;bottom=0;right=0;overflow=hidden;strokeColor=inherit;fontSize=16;fontFamily=Times New Roman;" vertex="1" parent="ntK_IDRZFJ25XYkXD009-22">
          <mxGeometry width="76" height="20" as="geometry">
            <mxRectangle width="76" height="20" as="alternateBounds" />
          </mxGeometry>
        </mxCell>
        <mxCell id="ntK_IDRZFJ25XYkXD009-24" value="" style="shape=partialRectangle;html=1;whiteSpace=wrap;connectable=0;fillColor=none;top=0;left=0;bottom=0;right=0;align=left;spacingLeft=6;overflow=hidden;strokeColor=inherit;fontSize=16;fontFamily=Times New Roman;" vertex="1" parent="ntK_IDRZFJ25XYkXD009-22">
          <mxGeometry x="76" width="423" height="20" as="geometry">
            <mxRectangle width="423" height="20" as="alternateBounds" />
          </mxGeometry>
        </mxCell>
        <mxCell id="ntK_IDRZFJ25XYkXD009-28" value="" style="edgeStyle=orthogonalEdgeStyle;rounded=0;orthogonalLoop=1;jettySize=auto;html=1;" edge="1" parent="1" source="ntK_IDRZFJ25XYkXD009-25" target="ntK_IDRZFJ25XYkXD009-27">
          <mxGeometry relative="1" as="geometry" />
        </mxCell>
        <mxCell id="ntK_IDRZFJ25XYkXD009-25" value="Entrega de examen con estado &quot;InProgress&quot;" style="rounded=0;whiteSpace=wrap;html=1;fillColor=#dae8fc;strokeColor=#6c8ebf;fontFamily=Times New Roman;fontSize=13;" vertex="1" parent="1">
          <mxGeometry x="342" y="182" width="144" height="38" as="geometry" />
        </mxCell>
        <mxCell id="ntK_IDRZFJ25XYkXD009-30" value="" style="edgeStyle=orthogonalEdgeStyle;rounded=0;orthogonalLoop=1;jettySize=auto;html=1;" edge="1" parent="1" source="ntK_IDRZFJ25XYkXD009-27" target="ntK_IDRZFJ25XYkXD009-29">
          <mxGeometry relative="1" as="geometry" />
        </mxCell>
        <mxCell id="ntK_IDRZFJ25XYkXD009-27" value="El área técnica ingresa con credenciales administrativas a la plataforma Moodle" style="whiteSpace=wrap;html=1;fontSize=13;fontFamily=Times New Roman;rounded=0;" vertex="1" parent="1">
          <mxGeometry x="347.5" y="246" width="133" height="63" as="geometry" />
        </mxCell>
        <mxCell id="ntK_IDRZFJ25XYkXD009-32" value="" style="edgeStyle=orthogonalEdgeStyle;rounded=0;orthogonalLoop=1;jettySize=auto;html=1;" edge="1" parent="1" source="ntK_IDRZFJ25XYkXD009-29" target="ntK_IDRZFJ25XYkXD009-31">
          <mxGeometry relative="1" as="geometry" />
        </mxCell>
        <mxCell id="ntK_IDRZFJ25XYkXD009-29" value="Ingresar al curso/Buscar recurso de cuestionario/Identificar el intento del estudiante/Revisión de intento" style="whiteSpace=wrap;html=1;fontSize=13;fontFamily=Times New Roman;rounded=0;" vertex="1" parent="1">
          <mxGeometry x="321" y="335" width="186" height="49" as="geometry" />
        </mxCell>
        <mxCell id="ntK_IDRZFJ25XYkXD009-34" value="" style="edgeStyle=orthogonalEdgeStyle;rounded=0;orthogonalLoop=1;jettySize=auto;html=1;" edge="1" parent="1" source="ntK_IDRZFJ25XYkXD009-31" target="ntK_IDRZFJ25XYkXD009-33">
          <mxGeometry relative="1" as="geometry" />
        </mxCell>
        <mxCell id="ntK_IDRZFJ25XYkXD009-31" value="Copiar el numero de la url, ejemplo:&lt;a style=&quot;-webkit-user-drag: none; -webkit-tap-highlight-color: transparent; margin: 0px; padding: 0px; user-select: text; text-align: left; white-space-collapse: preserve; background-color: rgb(255, 255, 255); text-decoration-line: none;&quot; rel=&quot;noreferrer noopener&quot; target=&quot;_blank&quot; href=&quot;https://uv.utecvirtual.edu.sv/uv/mod/quiz/review.php?attempt=587807&quot; class=&quot;Hyperlink SCXW176193180 BCX0&quot;&gt;&lt;font face=&quot;Times New Roman&quot;&gt;&lt;span style=&quot;-webkit-user-drag: none; -webkit-tap-highlight-color: transparent; margin: 0px; padding: 0px; user-select: text; color: rgb(5, 99, 193); text-decoration-line: underline; line-height: 19.425px; font-variant-ligatures: none !important;&quot; class=&quot;TextRun Underlined SCXW176193180 BCX0&quot; lang=&quot;ES-ES&quot; data-contrast=&quot;none&quot;&gt;&lt;span style=&quot;-webkit-user-drag: none; -webkit-tap-highlight-color: transparent; margin: 0px; padding: 0px; user-select: text;&quot; data-ccp-charstyle=&quot;Hyperlink&quot; class=&quot;NormalTextRun SCXW176193180 BCX0&quot;&gt;https://uv.utecvirtual.edu.sv/uv/mod/quiz/review.php?attempt=&lt;/span&gt;&lt;/span&gt;&lt;span style=&quot;-webkit-user-drag: none; -webkit-tap-highlight-color: transparent; margin: 0px; padding: 0px; user-select: text; color: rgb(5, 99, 193); text-decoration-line: underline; line-height: 19.425px; font-weight: bold; font-variant-ligatures: none !important;&quot; class=&quot;TextRun Underlined SCXW176193180 BCX0&quot; lang=&quot;ES-ES&quot; data-contrast=&quot;none&quot;&gt;&lt;span style=&quot;-webkit-user-drag: none; -webkit-tap-highlight-color: transparent; margin: 0px; padding: 0px; user-select: text;&quot; data-ccp-charstyle=&quot;Hyperlink&quot; class=&quot;NormalTextRun SCXW176193180 BCX0&quot;&gt;587807&lt;/span&gt;&lt;/span&gt;&lt;/font&gt;&lt;/a&gt;" style="whiteSpace=wrap;html=1;fontSize=13;fontFamily=Times New Roman;rounded=0;" vertex="1" parent="1">
          <mxGeometry x="205" y="410" width="418" height="40" as="geometry" />
        </mxCell>
        <mxCell id="ntK_IDRZFJ25XYkXD009-36" value="" style="edgeStyle=orthogonalEdgeStyle;rounded=0;orthogonalLoop=1;jettySize=auto;html=1;" edge="1" parent="1" source="ntK_IDRZFJ25XYkXD009-33" target="ntK_IDRZFJ25XYkXD009-35">
          <mxGeometry relative="1" as="geometry" />
        </mxCell>
        <mxCell id="ntK_IDRZFJ25XYkXD009-33" value="El área técnica ingresa a la base de datos de Moodle con las credenciales de administrador correspondiente" style="whiteSpace=wrap;html=1;fontSize=13;fontFamily=Times New Roman;rounded=0;" vertex="1" parent="1">
          <mxGeometry x="324" y="476" width="180" height="63" as="geometry" />
        </mxCell>
        <mxCell id="ntK_IDRZFJ25XYkXD009-38" value="" style="edgeStyle=orthogonalEdgeStyle;rounded=0;orthogonalLoop=1;jettySize=auto;html=1;" edge="1" parent="1" source="ntK_IDRZFJ25XYkXD009-35" target="ntK_IDRZFJ25XYkXD009-37">
          <mxGeometry relative="1" as="geometry" />
        </mxCell>
        <mxCell id="ntK_IDRZFJ25XYkXD009-35" value="Buscar la tabla de nombre: quiz_attempts" style="whiteSpace=wrap;html=1;fontSize=13;fontFamily=Times New Roman;rounded=0;" vertex="1" parent="1">
          <mxGeometry x="348" y="565" width="132" height="36" as="geometry" />
        </mxCell>
        <mxCell id="ntK_IDRZFJ25XYkXD009-40" value="" style="edgeStyle=orthogonalEdgeStyle;rounded=0;orthogonalLoop=1;jettySize=auto;html=1;" edge="1" parent="1" source="ntK_IDRZFJ25XYkXD009-37" target="ntK_IDRZFJ25XYkXD009-39">
          <mxGeometry relative="1" as="geometry" />
        </mxCell>
        <mxCell id="ntK_IDRZFJ25XYkXD009-37" value="Filtrar los datos de la tabla anterior según ID, el cual será el copiado en el paso 3" style="whiteSpace=wrap;html=1;fontSize=13;fontFamily=Times New Roman;rounded=0;" vertex="1" parent="1">
          <mxGeometry x="312.5" y="627" width="203" height="44" as="geometry" />
        </mxCell>
        <mxCell id="ntK_IDRZFJ25XYkXD009-42" value="" style="edgeStyle=orthogonalEdgeStyle;rounded=0;orthogonalLoop=1;jettySize=auto;html=1;" edge="1" parent="1" source="ntK_IDRZFJ25XYkXD009-39" target="ntK_IDRZFJ25XYkXD009-41">
          <mxGeometry relative="1" as="geometry" />
        </mxCell>
        <mxCell id="ntK_IDRZFJ25XYkXD009-39" value="En la columna de la table con nombre &quot;state&quot; reemplazar &quot;inprogress&quot; por &quot;finished&quot;" style="whiteSpace=wrap;html=1;fontSize=13;fontFamily=Times New Roman;rounded=0;" vertex="1" parent="1">
          <mxGeometry x="337" y="697" width="154" height="64" as="geometry" />
        </mxCell>
        <mxCell id="ntK_IDRZFJ25XYkXD009-44" value="" style="edgeStyle=orthogonalEdgeStyle;rounded=0;orthogonalLoop=1;jettySize=auto;html=1;" edge="1" parent="1" source="ntK_IDRZFJ25XYkXD009-41" target="ntK_IDRZFJ25XYkXD009-43">
          <mxGeometry relative="1" as="geometry" />
        </mxCell>
        <mxCell id="ntK_IDRZFJ25XYkXD009-41" value="Guardar los cambios en la base de datos" style="whiteSpace=wrap;html=1;fontSize=13;fontFamily=Times New Roman;rounded=0;" vertex="1" parent="1">
          <mxGeometry x="354" y="787" width="120" height="43" as="geometry" />
        </mxCell>
        <mxCell id="ntK_IDRZFJ25XYkXD009-46" value="" style="edgeStyle=orthogonalEdgeStyle;rounded=0;orthogonalLoop=1;jettySize=auto;html=1;" edge="1" parent="1" source="ntK_IDRZFJ25XYkXD009-43" target="ntK_IDRZFJ25XYkXD009-45">
          <mxGeometry relative="1" as="geometry" />
        </mxCell>
        <mxCell id="ntK_IDRZFJ25XYkXD009-43" value="Volver a Moodle en el área de intento del estudiante, seleccionar exclusivamente el intento y recalificar" style="whiteSpace=wrap;html=1;fontSize=13;fontFamily=Times New Roman;rounded=0;" vertex="1" parent="1">
          <mxGeometry x="338" y="856" width="152" height="67" as="geometry" />
        </mxCell>
        <mxCell id="ntK_IDRZFJ25XYkXD009-45" value="El área técnica notifica por correo electrónico que el proceso ha finalizado y se puede revisar por parte del estudiante o docente" style="whiteSpace=wrap;html=1;fontSize=13;fontFamily=Times New Roman;rounded=0;" vertex="1" parent="1">
          <mxGeometry x="334.5" y="949" width="159" height="82" as="geometry" />
        </mxCell>
      </root>
    </mxGraphModel>
  </diagram>
</mxfile>
